<svg width="71" height="41" viewBox="0 0 71 41" fill="none" xmlns="http://www.w3.org/2000/svg">
<path d="M0 20.5871C0 34.8224 0.0278431 38.4069 0.111373 38.3508C0.17634 38.3042 0.52902 38.0521 0.900261 37.7814C6.05124 33.9636 13.5967 30.3884 20.4647 28.5215C30.7574 25.7118 41.5698 25.8611 51.9553 28.9416C58.3871 30.8458 64.9952 34.0943 69.8956 37.7628C70.4339 38.1642 70.9072 38.5002 70.9443 38.5002C70.9722 38.5002 71 30.4538 71 20.6244V2.74862H35.5H0V20.5871ZM10.302 7.19189C10.9424 7.37859 11.8333 8.01334 12.251 8.57342C13.0492 9.63756 13.1976 10.4403 13.1605 13.4368L13.1327 15.397L11.4435 15.425L9.7451 15.4437V13.2687C9.7451 11.1498 9.73582 11.0751 9.53163 10.7671C9.14183 10.179 8.24157 10.1883 7.93529 10.7857C7.73111 11.1778 7.73111 24.3583 7.93529 24.6476C8.26013 25.1237 9.06758 25.161 9.47595 24.7223C9.69869 24.4796 9.69869 24.4796 9.72654 22.0153L9.75438 19.5509L11.4435 19.5696L13.1327 19.5976V22.0713C13.1234 24.3489 13.1141 24.601 12.9192 25.2077C12.5108 26.5519 11.4899 27.532 10.0142 27.9988C8.27869 28.5495 6.64523 28.1388 5.49438 26.8786C4.9468 26.2719 4.6034 25.5998 4.46418 24.8343C4.29712 23.9382 4.32497 11.0938 4.49203 10.3003C4.85399 8.59209 6.18118 7.30391 7.85176 7.05188C8.52928 6.93986 9.69869 7.01454 10.302 7.19189ZM20.9009 7.31325C22.0982 7.77998 23.0356 8.75078 23.3882 9.89893C23.5646 10.4963 23.5739 10.739 23.5739 16.7599V23.0047L23.3697 23.0514C22.8499 23.1634 20.5575 23.5648 20.3997 23.5648C20.242 23.5648 20.2327 23.4528 20.2327 21.7446V19.9243H19.2025H18.163L18.228 21.9779C18.2651 23.1074 18.2837 24.0315 18.2651 24.0315C18.2465 24.0315 17.5041 24.2462 16.6131 24.4983C15.7221 24.7503 14.961 24.965 14.9239 24.965C14.8775 24.965 14.8497 21.7632 14.8497 17.8427C14.8497 10.095 14.8497 10.1603 15.3787 9.17083C15.8799 8.23737 17.0678 7.35992 18.1166 7.13589C18.8127 6.98653 20.3069 7.08921 20.9009 7.31325ZM30.2005 10.431C30.7574 12.0086 31.24 13.2781 31.2678 13.2501C31.2957 13.2221 31.7783 11.9245 32.3444 10.375L33.3746 7.55594L35.203 7.52794L37.0314 7.50927L37.0128 14.7156L36.985 21.9313L35.2958 21.9593L33.5974 21.9779L33.5881 18.8788V15.7704L32.4187 18.1507L31.2586 20.5311L30.0706 18.1507L28.8733 15.7704V19.0562C28.8641 21.6325 28.8362 22.3513 28.7527 22.3513C28.6877 22.3513 27.9824 22.4353 27.1935 22.538C26.4046 22.6407 25.6807 22.7247 25.5971 22.7247C25.4393 22.7247 25.4301 22.3046 25.4301 15.117V7.50927L27.3048 7.52794L29.1796 7.55594L30.2005 10.431ZM45.4771 7.66796C46.0804 7.86399 46.795 8.49874 47.1292 9.1335L47.3797 9.60956L47.4076 12.6993C47.4354 15.6771 47.4261 15.8077 47.2312 16.3305C46.9807 17.0212 46.4424 17.6093 45.7648 17.936C45.2729 18.1787 45.1616 18.1974 43.788 18.2254L42.3216 18.2628V20.223V22.1833L41.0501 22.1273C40.3447 22.0899 39.5744 22.0433 39.3331 22.0153L38.8876 21.9593V14.7343V7.50927H41.941C44.549 7.50927 45.0595 7.52794 45.4771 7.66796ZM56.039 9.06815L56.0111 10.6364L54.2291 10.6644L52.4379 10.683V12.5033V14.3235H54.0621H55.6863V15.9571V17.5907H54.0621H52.4379V19.2709C52.4379 20.195 52.4472 20.9511 52.4658 20.9511C52.475 20.9605 53.3196 21.1191 54.3405 21.3058L56.1967 21.6512L56.2246 23.3128C56.2431 24.573 56.2246 24.965 56.1318 24.965C56.0668 24.965 55.3058 24.7596 54.4333 24.4983C53.2175 24.1436 49.2267 23.1914 48.9575 23.1914C48.9297 23.1914 48.9111 19.6629 48.9111 15.3503V7.50927H52.4843H56.0575L56.039 9.06815ZM64.6054 7.75197C65.2272 8.04135 65.7562 8.56408 66.0532 9.17083L66.3131 9.70291V12.97V16.2371L66.0532 16.7692C65.9047 17.0679 65.617 17.4506 65.4128 17.628L65.0323 17.9547L65.4963 18.4588C65.7469 18.7388 66.0532 19.2149 66.1831 19.5136L66.4059 20.0643L66.4337 24.7503L66.4616 29.4363L65.9697 29.2216C65.7005 29.1002 64.958 28.7362 64.3176 28.4281L63.1575 27.8494L63.1111 24.2369L63.0647 20.6244L62.8048 20.1857C62.5357 19.7096 61.9603 19.3082 61.3941 19.1775L61.0693 19.1029V23.0141C61.0693 25.6931 61.0414 26.9253 60.9672 26.9253C60.8373 26.9253 57.8952 25.7118 57.7559 25.5904C57.6631 25.5251 57.6353 23.6022 57.6353 16.5639C57.6353 11.6538 57.6631 7.60262 57.7003 7.56528C57.7374 7.52794 59.2131 7.50927 60.9765 7.52794C64.0207 7.55594 64.197 7.56528 64.6054 7.75197Z" fill="#D42D1F"/>
<path d="M18.6271 10.59C18.4878 10.702 18.3393 10.9447 18.2837 11.1314C18.228 11.3274 18.1908 12.5782 18.1908 14.0624V16.6575H19.2118H20.2327V13.9504C20.2327 11.038 20.2048 10.87 19.7501 10.5526C19.4531 10.3473 18.9148 10.3659 18.6271 10.59Z" fill="#D42D1F"/>
<path d="M42.1357 12.8768V15.3692L43.1195 15.3318C44.5117 15.2945 44.456 15.3972 44.456 12.8768C44.456 10.3565 44.5209 10.4685 43.1195 10.4218L42.1357 10.3845V12.8768Z" fill="#D42D1F"/>
<path d="M60.8838 13.1198V15.8361L61.914 15.7988C62.7957 15.7708 62.9628 15.7428 63.0741 15.5841C63.1762 15.4441 63.2041 14.9307 63.2041 13.0544C63.2041 10.2074 63.3062 10.4034 61.8398 10.4034H60.8838V13.1198Z" fill="#D42D1F"/>
</svg>
